<svg width="1280" viewBox="0 0 1280 320" xmlns="http://www.w3.org/2000/svg">
<style>
.label { font: 700 14px 'Segoe UI', Ubuntu, Sans-Serif; fill:#A9FF00 }
.val { font: 700 12px 'Segoe UI', Ubuntu, Sans-Serif; fill:#0A0A0B }
.track { fill:#1B1D23 }
.bar { fill:#A9FF00 }
.cap { fill:#7E2BD1 }
.hdr { font: 800 18px 'Segoe UI', Ubuntu, Sans-Serif; fill:#EAEAEA; letter-spacing:1px }
</style>


<rect x="0" y="0" width="1280" height="100%" rx="16" fill="#0A0A0B"/>
<text class="hdr" x="40" y="40">AT-FIELD STRENGTH // SKILLS</text>


<g transform="translate(40,70)">
<text class="label" x="0" y="12">Arquitectura de microservicios</text>
<rect class="track" x="0" y="24" width="960" height="18" rx="9"/>
<rect class="bar" x="0" y="24" width="864" height="18" rx="9"/>
<rect class="cap" x="864" y="24" width="6" height="18" rx="3"/>
<rect x="980" y="20" width="80" height="26" rx="6" fill="#A9FF00"/><text class="val" x="1003" y="37">90%</text>


<g transform="translate(0,44)">
<text class="label" x="0" y="12">DevOps / Dockerización</text>
<rect class="track" x="0" y="24" width="960" height="18" rx="9"/>
<rect class="bar" x="0" y="24" width="768" height="18" rx="9"/>
<rect class="cap" x="768" y="24" width="6" height="18" rx="3"/>
<rect x="980" y="20" width="80" height="26" rx="6" fill="#A9FF00"/><text class="val" x="1003" y="37">80%</text>
</g>


<g transform="translate(0,88)">
<text class="label" x="0" y="12">Backend (Node / Django)</text>
<rect class="track" x="0" y="24" width="960" height="18" rx="9"/>
<rect class="bar" x="0" y="24" width="864" height="18" rx="9"/>
<rect class="cap" x="864" y="24" width="6" height="18" rx="3"/>
<rect x="980" y="20" width="80" height="26" rx="6" fill="#A9FF00"/><text class="val" x="1003" y="37">90%</text>
</g>


<g transform="translate(0,132)">
<text class="label" x="0" y="12">Frontend (React)</text>
<rect class="track" x="0" y="24" width="960" height="18" rx="9"/>
<rect class="bar" x="0" y="24" width="672" height="18" rx="9"/>
<rect class="cap" x="672" y="24" width="6" height="18" rx="3"/>
<rect x="980" y="20" width="80" height="26" rx="6" fill="#A9FF00"/><text class="val" x="1003" y="37">70%</text>
</g>


<g transform="translate(0,176)">
<text class="label" x="0" y="12">SQL / Modelado de datos</text>
<rect class="track" x="0" y="24" width="960" height="18" rx="9"/>
<rect class="bar" x="0" y="24" width="768" height="18" rx="9"/>
<rect class="cap" x="768" y="24" width="6" height="18" rx="3"/>
<rect x="980" y="20" width="80" height="26" rx="6" fill="#A9FF00"/><text class="val" x="1003" y="37">80%</text>
</g>
</g>
</svg>